<svg width="18" height="18" viewBox="0 0 18 18" fill="none" xmlns="http://www.w3.org/2000/svg">
<g id="Logout">
<path id="Fill 1" fill-rule="evenodd" clip-rule="evenodd" d="M8.43283 17.3333H4.36116C2.32449 17.3333 0.666992 15.6758 0.666992 13.6375V4.36333C0.666992 2.325 2.32449 0.666664 4.36116 0.666664H8.42366C10.462 0.666664 12.1203 2.325 12.1203 4.36333V5.14C12.1203 5.485 11.8403 5.765 11.4953 5.765C11.1503 5.765 10.8703 5.485 10.8703 5.14V4.36333C10.8703 3.01333 9.77283 1.91666 8.42366 1.91666H4.36116C3.01366 1.91666 1.91699 3.01333 1.91699 4.36333V13.6375C1.91699 14.9867 3.01366 16.0833 4.36116 16.0833H8.43283C9.77616 16.0833 10.8703 14.99 10.8703 13.6467V12.8608C10.8703 12.5158 11.1503 12.2358 11.4953 12.2358C11.8403 12.2358 12.1203 12.5158 12.1203 12.8608V13.6467C12.1203 15.68 10.4653 17.3333 8.43283 17.3333" fill="#D92D20"/>
<g id="Group 5">
<mask id="mask0_714_24" style="mask-type:luminance" maskUnits="userSpaceOnUse" x="6" y="8" width="12" height="2">
<path id="Clip 4" fill-rule="evenodd" clip-rule="evenodd" d="M6.49658 8.375H17.7807V9.625H6.49658V8.375Z" fill="white"/>
</mask>
<g mask="url(#mask0_714_24)">
<path id="Fill 3" fill-rule="evenodd" clip-rule="evenodd" d="M17.1557 9.625H7.12158C6.77658 9.625 6.49658 9.345 6.49658 9C6.49658 8.655 6.77658 8.375 7.12158 8.375H17.1557C17.5007 8.375 17.7807 8.655 17.7807 9C17.7807 9.345 17.5007 9.625 17.1557 9.625" fill="#D92D20"/>
</g>
</g>
<g id="Group 8">
<mask id="mask1_714_24" style="mask-type:luminance" maskUnits="userSpaceOnUse" x="14" y="5" width="4" height="8">
<path id="Clip 7" fill-rule="evenodd" clip-rule="evenodd" d="M14.0913 5.94604H17.7808V12.055H14.0913V5.94604Z" fill="white"/>
</mask>
<g mask="url(#mask1_714_24)">
<path id="Fill 6" fill-rule="evenodd" clip-rule="evenodd" d="M14.7161 12.055C14.5561 12.055 14.3953 11.9942 14.2736 11.8708C14.0303 11.6258 14.0311 11.2308 14.2753 10.9875L16.2703 9L14.2753 7.01333C14.0311 6.77 14.0294 6.375 14.2736 6.13C14.5169 5.885 14.9119 5.885 15.1569 6.12833L17.5969 8.5575C17.7153 8.67416 17.7811 8.83416 17.7811 9C17.7811 9.16583 17.7153 9.32583 17.5969 9.4425L15.1569 11.8725C15.0353 11.9942 14.8753 12.055 14.7161 12.055" fill="#D92D20"/>
</g>
</g>
</g>
</svg>
